<mxfile host="app.diagrams.net" modified="2023-05-04T12:23:17.207Z" agent="Mozilla/5.0 (Windows NT 10.0; Win64; x64) AppleWebKit/537.36 (KHTML, like Gecko) Chrome/112.0.0.0 Safari/537.36" etag="vatX9D58CpQ0TO1ZoaHA" version="21.2.7" type="google">
  <diagram name="Page-1" id="c4acf3e9-155e-7222-9cf6-157b1a14988f">
    <mxGraphModel grid="1" page="1" gridSize="10" guides="1" tooltips="1" connect="1" arrows="1" fold="1" pageScale="1" pageWidth="850" pageHeight="1100" background="none" math="0" shadow="0">
      <root>
        <mxCell id="0" />
        <mxCell id="1" parent="0" />
        <mxCell id="ZNj3FtL4azlroC563BPM-25" style="rounded=0;orthogonalLoop=1;jettySize=auto;html=1;entryX=1;entryY=0.5;entryDx=0;entryDy=0;endArrow=none;endFill=0;" edge="1" parent="1" source="ZNj3FtL4azlroC563BPM-4" target="ZNj3FtL4azlroC563BPM-11">
          <mxGeometry relative="1" as="geometry" />
        </mxCell>
        <mxCell id="ZNj3FtL4azlroC563BPM-26" style="rounded=0;orthogonalLoop=1;jettySize=auto;html=1;entryX=1;entryY=0.5;entryDx=0;entryDy=0;endArrow=none;endFill=0;" edge="1" parent="1" source="ZNj3FtL4azlroC563BPM-4" target="ZNj3FtL4azlroC563BPM-12">
          <mxGeometry relative="1" as="geometry" />
        </mxCell>
        <mxCell id="ZNj3FtL4azlroC563BPM-28" style="rounded=0;orthogonalLoop=1;jettySize=auto;html=1;entryX=1;entryY=0.5;entryDx=0;entryDy=0;endArrow=none;endFill=0;" edge="1" parent="1" source="ZNj3FtL4azlroC563BPM-4" target="ZNj3FtL4azlroC563BPM-14">
          <mxGeometry relative="1" as="geometry" />
        </mxCell>
        <mxCell id="ZNj3FtL4azlroC563BPM-29" style="rounded=0;orthogonalLoop=1;jettySize=auto;html=1;entryX=0;entryY=1;entryDx=0;entryDy=0;endArrow=none;endFill=0;" edge="1" parent="1" source="ZNj3FtL4azlroC563BPM-4" target="ZNj3FtL4azlroC563BPM-13">
          <mxGeometry relative="1" as="geometry" />
        </mxCell>
        <mxCell id="ZNj3FtL4azlroC563BPM-48" style="rounded=0;orthogonalLoop=1;jettySize=auto;html=1;endArrow=none;endFill=0;" edge="1" parent="1" source="ZNj3FtL4azlroC563BPM-4" target="ZNj3FtL4azlroC563BPM-43">
          <mxGeometry relative="1" as="geometry" />
        </mxCell>
        <mxCell id="ZNj3FtL4azlroC563BPM-4" value="公司管理者" style="shape=umlActor;verticalLabelPosition=bottom;verticalAlign=top;html=1;outlineConnect=0;" vertex="1" parent="1">
          <mxGeometry x="430" y="200" width="30" height="60" as="geometry" />
        </mxCell>
        <mxCell id="ZNj3FtL4azlroC563BPM-30" style="rounded=0;orthogonalLoop=1;jettySize=auto;html=1;entryX=1;entryY=1;entryDx=0;entryDy=0;endArrow=none;endFill=0;" edge="1" parent="1" source="ZNj3FtL4azlroC563BPM-5" target="ZNj3FtL4azlroC563BPM-13">
          <mxGeometry relative="1" as="geometry" />
        </mxCell>
        <mxCell id="ZNj3FtL4azlroC563BPM-49" style="rounded=0;orthogonalLoop=1;jettySize=auto;html=1;entryX=1;entryY=0;entryDx=0;entryDy=0;endArrow=none;endFill=0;" edge="1" parent="1" source="ZNj3FtL4azlroC563BPM-5" target="ZNj3FtL4azlroC563BPM-43">
          <mxGeometry relative="1" as="geometry" />
        </mxCell>
        <mxCell id="ZNj3FtL4azlroC563BPM-5" value="公司發票檢核者" style="shape=umlActor;verticalLabelPosition=bottom;verticalAlign=top;html=1;outlineConnect=0;" vertex="1" parent="1">
          <mxGeometry x="710" y="200" width="30" height="60" as="geometry" />
        </mxCell>
        <mxCell id="ZNj3FtL4azlroC563BPM-36" style="rounded=0;orthogonalLoop=1;jettySize=auto;html=1;entryX=0.5;entryY=1;entryDx=0;entryDy=0;endArrow=none;endFill=0;" edge="1" parent="1" source="ZNj3FtL4azlroC563BPM-6" target="ZNj3FtL4azlroC563BPM-15">
          <mxGeometry relative="1" as="geometry" />
        </mxCell>
        <mxCell id="0aJfc2Yyu7M5QrowPmhC-14" style="rounded=0;orthogonalLoop=1;jettySize=auto;html=1;entryX=1;entryY=0.5;entryDx=0;entryDy=0;endArrow=none;endFill=0;" edge="1" parent="1" source="ZNj3FtL4azlroC563BPM-6" target="0aJfc2Yyu7M5QrowPmhC-12">
          <mxGeometry relative="1" as="geometry" />
        </mxCell>
        <mxCell id="nAPB7rmTouUHe1gxopgQ-6" style="edgeStyle=orthogonalEdgeStyle;rounded=0;orthogonalLoop=1;jettySize=auto;html=1;entryX=0;entryY=0.5;entryDx=0;entryDy=0;endArrow=none;endFill=0;" edge="1" parent="1" source="ZNj3FtL4azlroC563BPM-6" target="nAPB7rmTouUHe1gxopgQ-1">
          <mxGeometry relative="1" as="geometry" />
        </mxCell>
        <mxCell id="JSuSvgok5jORs18v_VUC-2" style="rounded=0;orthogonalLoop=1;jettySize=auto;html=1;entryX=1;entryY=0;entryDx=0;entryDy=0;endArrow=none;endFill=0;" edge="1" parent="1" source="ZNj3FtL4azlroC563BPM-6" target="JSuSvgok5jORs18v_VUC-1">
          <mxGeometry relative="1" as="geometry" />
        </mxCell>
        <mxCell id="ZNj3FtL4azlroC563BPM-6" value="system" style="shape=umlActor;verticalLabelPosition=bottom;verticalAlign=top;html=1;outlineConnect=0;" vertex="1" parent="1">
          <mxGeometry x="420" y="450" width="30" height="60" as="geometry" />
        </mxCell>
        <mxCell id="ZNj3FtL4azlroC563BPM-11" value="註冊會員" style="ellipse;whiteSpace=wrap;html=1;aspect=fixed;" vertex="1" parent="1">
          <mxGeometry x="160" y="170" width="90" height="45" as="geometry" />
        </mxCell>
        <mxCell id="ZNj3FtL4azlroC563BPM-12" value="修改會員資料及權限" style="ellipse;whiteSpace=wrap;html=1;aspect=fixed;" vertex="1" parent="1">
          <mxGeometry x="260" y="223.5" width="130" height="65" as="geometry" />
        </mxCell>
        <mxCell id="ZNj3FtL4azlroC563BPM-13" value="修改/檢視發票內容" style="ellipse;whiteSpace=wrap;html=1;aspect=fixed;" vertex="1" parent="1">
          <mxGeometry x="520" y="145" width="110" height="55" as="geometry" />
        </mxCell>
        <mxCell id="ZNj3FtL4azlroC563BPM-14" value="圖 / 報表檢視" style="ellipse;whiteSpace=wrap;html=1;aspect=fixed;" vertex="1" parent="1">
          <mxGeometry x="240" y="130" width="90" height="45" as="geometry" />
        </mxCell>
        <mxCell id="ZNj3FtL4azlroC563BPM-15" value="E-mail寄發" style="ellipse;whiteSpace=wrap;html=1;aspect=fixed;" vertex="1" parent="1">
          <mxGeometry x="390" y="370" width="90" height="45" as="geometry" />
        </mxCell>
        <mxCell id="ZNj3FtL4azlroC563BPM-37" value="&amp;lt;&amp;lt;include&amp;gt;&amp;gt;" style="endArrow=open;endSize=12;dashed=1;html=1;rounded=0;exitX=0.5;exitY=1;exitDx=0;exitDy=0;entryX=0;entryY=0.5;entryDx=0;entryDy=0;edgeStyle=orthogonalEdgeStyle;curved=1;" edge="1" parent="1" source="ZNj3FtL4azlroC563BPM-12" target="ZNj3FtL4azlroC563BPM-15">
          <mxGeometry x="-0.154" y="15" width="160" relative="1" as="geometry">
            <mxPoint x="160" y="392" as="sourcePoint" />
            <mxPoint x="320" y="392" as="targetPoint" />
            <mxPoint as="offset" />
          </mxGeometry>
        </mxCell>
        <mxCell id="ZNj3FtL4azlroC563BPM-38" value="&amp;lt;&amp;lt;include&amp;gt;&amp;gt;" style="endArrow=open;endSize=12;dashed=1;html=1;rounded=0;exitX=0.5;exitY=1;exitDx=0;exitDy=0;entryX=0.138;entryY=0.9;entryDx=0;entryDy=0;edgeStyle=orthogonalEdgeStyle;curved=1;entryPerimeter=0;" edge="1" parent="1" source="ZNj3FtL4azlroC563BPM-11" target="ZNj3FtL4azlroC563BPM-15">
          <mxGeometry x="-0.3629" y="15" width="160" relative="1" as="geometry">
            <mxPoint x="470" y="340" as="sourcePoint" />
            <mxPoint x="565" y="470" as="targetPoint" />
            <mxPoint as="offset" />
            <Array as="points">
              <mxPoint x="205" y="410" />
              <mxPoint x="350" y="410" />
            </Array>
          </mxGeometry>
        </mxCell>
        <mxCell id="ZNj3FtL4azlroC563BPM-39" value="&amp;lt;&amp;lt;include&amp;gt;&amp;gt;" style="endArrow=open;endSize=12;dashed=1;html=1;rounded=0;entryX=1;entryY=0;entryDx=0;entryDy=0;edgeStyle=orthogonalEdgeStyle;curved=1;exitX=0;exitY=1;exitDx=0;exitDy=0;" edge="1" parent="1" source="ZNj3FtL4azlroC563BPM-43" target="ZNj3FtL4azlroC563BPM-15">
          <mxGeometry x="0.2388" y="13" width="160" relative="1" as="geometry">
            <mxPoint x="530" y="390" as="sourcePoint" />
            <mxPoint x="615" y="500" as="targetPoint" />
            <mxPoint as="offset" />
          </mxGeometry>
        </mxCell>
        <mxCell id="ZNj3FtL4azlroC563BPM-43" value="" style="ellipse;whiteSpace=wrap;html=1;aspect=fixed;" vertex="1" parent="1">
          <mxGeometry x="485" y="247.5" width="180" height="90" as="geometry" />
        </mxCell>
        <mxCell id="ZNj3FtL4azlroC563BPM-44" value="" style="line;strokeWidth=1;fillColor=none;align=left;verticalAlign=middle;spacingTop=-1;spacingLeft=3;spacingRight=3;rotatable=0;labelPosition=right;points=[];portConstraint=eastwest;strokeColor=inherit;" vertex="1" parent="1">
          <mxGeometry x="495" y="288.5" width="160" height="8" as="geometry" />
        </mxCell>
        <mxCell id="ZNj3FtL4azlroC563BPM-45" value="登入" style="text;html=1;strokeColor=none;fillColor=none;align=center;verticalAlign=middle;whiteSpace=wrap;rounded=0;" vertex="1" parent="1">
          <mxGeometry x="545" y="258.5" width="60" height="30" as="geometry" />
        </mxCell>
        <mxCell id="ZNj3FtL4azlroC563BPM-46" value="extension points" style="text;html=1;strokeColor=none;fillColor=none;align=center;verticalAlign=middle;whiteSpace=wrap;rounded=0;" vertex="1" parent="1">
          <mxGeometry x="525" y="288.5" width="100" height="30" as="geometry" />
        </mxCell>
        <mxCell id="ZNj3FtL4azlroC563BPM-47" value="忘記密碼" style="text;html=1;strokeColor=none;fillColor=none;align=center;verticalAlign=middle;whiteSpace=wrap;rounded=0;" vertex="1" parent="1">
          <mxGeometry x="525" y="307.5" width="100" height="30" as="geometry" />
        </mxCell>
        <mxCell id="ZNj3FtL4azlroC563BPM-50" value="一次性密碼修改" style="ellipse;whiteSpace=wrap;html=1;aspect=fixed;" vertex="1" parent="1">
          <mxGeometry x="640" y="370" width="110" height="55" as="geometry" />
        </mxCell>
        <mxCell id="ZNj3FtL4azlroC563BPM-51" value="&amp;lt;&amp;lt;extend&amp;gt;&amp;gt;" style="endArrow=open;endSize=12;dashed=1;html=1;rounded=0;entryX=1;entryY=1;entryDx=0;entryDy=0;exitX=0;exitY=0;exitDx=0;exitDy=0;endFill=0;" edge="1" parent="1" source="ZNj3FtL4azlroC563BPM-50" target="ZNj3FtL4azlroC563BPM-43">
          <mxGeometry width="160" relative="1" as="geometry">
            <mxPoint x="500" y="410" as="sourcePoint" />
            <mxPoint x="660" y="410" as="targetPoint" />
          </mxGeometry>
        </mxCell>
        <mxCell id="ZNj3FtL4azlroC563BPM-56" value="&amp;lt;&amp;lt;include&amp;gt;&amp;gt;" style="endArrow=open;endSize=12;dashed=1;html=1;rounded=0;entryX=1;entryY=0.5;entryDx=0;entryDy=0;exitX=0;exitY=0.5;exitDx=0;exitDy=0;endFill=0;" edge="1" parent="1" source="ZNj3FtL4azlroC563BPM-50" target="ZNj3FtL4azlroC563BPM-15">
          <mxGeometry width="160" relative="1" as="geometry">
            <mxPoint x="666" y="388" as="sourcePoint" />
            <mxPoint x="649" y="334" as="targetPoint" />
          </mxGeometry>
        </mxCell>
        <mxCell id="0aJfc2Yyu7M5QrowPmhC-5" style="rounded=0;orthogonalLoop=1;jettySize=auto;html=1;entryX=0;entryY=0.5;entryDx=0;entryDy=0;endArrow=none;endFill=0;exitX=1;exitY=0.3333333333333333;exitDx=0;exitDy=0;exitPerimeter=0;" edge="1" parent="1" source="0aJfc2Yyu7M5QrowPmhC-1" target="0aJfc2Yyu7M5QrowPmhC-3">
          <mxGeometry relative="1" as="geometry">
            <mxPoint x="380" y="630" as="sourcePoint" />
          </mxGeometry>
        </mxCell>
        <mxCell id="0aJfc2Yyu7M5QrowPmhC-16" style="edgeStyle=orthogonalEdgeStyle;rounded=0;orthogonalLoop=1;jettySize=auto;html=1;entryX=1;entryY=0.5;entryDx=0;entryDy=0;endArrow=none;endFill=0;exitX=1;exitY=0.3333333333333333;exitDx=0;exitDy=0;exitPerimeter=0;" edge="1" parent="1" source="0aJfc2Yyu7M5QrowPmhC-1" target="ZNj3FtL4azlroC563BPM-43">
          <mxGeometry relative="1" as="geometry">
            <Array as="points">
              <mxPoint x="800" y="650" />
              <mxPoint x="800" y="292" />
            </Array>
          </mxGeometry>
        </mxCell>
        <mxCell id="0aJfc2Yyu7M5QrowPmhC-19" style="rounded=0;orthogonalLoop=1;jettySize=auto;html=1;entryX=0.5;entryY=1;entryDx=0;entryDy=0;endArrow=none;endFill=0;" edge="1" parent="1" source="0aJfc2Yyu7M5QrowPmhC-1" target="0aJfc2Yyu7M5QrowPmhC-9">
          <mxGeometry relative="1" as="geometry" />
        </mxCell>
        <mxCell id="0aJfc2Yyu7M5QrowPmhC-20" style="rounded=0;orthogonalLoop=1;jettySize=auto;html=1;entryX=0.5;entryY=1;entryDx=0;entryDy=0;endArrow=none;endFill=0;" edge="1" parent="1" source="0aJfc2Yyu7M5QrowPmhC-1" target="0aJfc2Yyu7M5QrowPmhC-10">
          <mxGeometry relative="1" as="geometry" />
        </mxCell>
        <mxCell id="0aJfc2Yyu7M5QrowPmhC-21" style="rounded=0;orthogonalLoop=1;jettySize=auto;html=1;entryX=0.5;entryY=1;entryDx=0;entryDy=0;endArrow=none;endFill=0;" edge="1" parent="1" source="0aJfc2Yyu7M5QrowPmhC-1" target="0aJfc2Yyu7M5QrowPmhC-11">
          <mxGeometry relative="1" as="geometry" />
        </mxCell>
        <mxCell id="0aJfc2Yyu7M5QrowPmhC-26" style="edgeStyle=orthogonalEdgeStyle;rounded=0;orthogonalLoop=1;jettySize=auto;html=1;entryX=0.22;entryY=0.919;entryDx=0;entryDy=0;entryPerimeter=0;endArrow=none;endFill=0;exitX=0;exitY=0.3333333333333333;exitDx=0;exitDy=0;exitPerimeter=0;" edge="1" parent="1" source="0aJfc2Yyu7M5QrowPmhC-1" target="ZNj3FtL4azlroC563BPM-11">
          <mxGeometry relative="1" as="geometry">
            <Array as="points">
              <mxPoint x="180" y="650" />
              <mxPoint x="180" y="211" />
            </Array>
          </mxGeometry>
        </mxCell>
        <mxCell id="0aJfc2Yyu7M5QrowPmhC-1" value="個人使用者" style="shape=umlActor;verticalLabelPosition=bottom;verticalAlign=top;html=1;outlineConnect=0;" vertex="1" parent="1">
          <mxGeometry x="320" y="630" width="30" height="60" as="geometry" />
        </mxCell>
        <mxCell id="0aJfc2Yyu7M5QrowPmhC-7" style="rounded=0;orthogonalLoop=1;jettySize=auto;html=1;entryX=1;entryY=0.5;entryDx=0;entryDy=0;endArrow=none;endFill=0;exitX=0;exitY=0.3333333333333333;exitDx=0;exitDy=0;exitPerimeter=0;" edge="1" parent="1" source="0aJfc2Yyu7M5QrowPmhC-2" target="0aJfc2Yyu7M5QrowPmhC-3">
          <mxGeometry relative="1" as="geometry" />
        </mxCell>
        <mxCell id="0aJfc2Yyu7M5QrowPmhC-15" style="edgeStyle=orthogonalEdgeStyle;rounded=0;orthogonalLoop=1;jettySize=auto;html=1;entryX=1;entryY=0.5;entryDx=0;entryDy=0;endArrow=none;endFill=0;" edge="1" parent="1" source="0aJfc2Yyu7M5QrowPmhC-2" target="ZNj3FtL4azlroC563BPM-43">
          <mxGeometry relative="1" as="geometry">
            <Array as="points">
              <mxPoint x="800" y="490" />
              <mxPoint x="800" y="293" />
            </Array>
          </mxGeometry>
        </mxCell>
        <mxCell id="0aJfc2Yyu7M5QrowPmhC-2" value="公司發票掃描者" style="shape=umlActor;verticalLabelPosition=bottom;verticalAlign=top;html=1;outlineConnect=0;" vertex="1" parent="1">
          <mxGeometry x="720" y="461" width="30" height="60" as="geometry" />
        </mxCell>
        <mxCell id="0aJfc2Yyu7M5QrowPmhC-3" value="掃描發票&lt;br&gt;(電子/傳統)" style="ellipse;whiteSpace=wrap;html=1;aspect=fixed;" vertex="1" parent="1">
          <mxGeometry x="500" y="585" width="110" height="55" as="geometry" />
        </mxCell>
        <mxCell id="0aJfc2Yyu7M5QrowPmhC-4" value="&amp;lt;&amp;lt;extend&amp;gt;&amp;gt;" style="endArrow=open;endSize=12;dashed=1;html=1;rounded=0;exitX=0.5;exitY=0;exitDx=0;exitDy=0;endFill=0;entryX=0.373;entryY=1.022;entryDx=0;entryDy=0;entryPerimeter=0;" edge="1" parent="1" source="0aJfc2Yyu7M5QrowPmhC-3" target="nAPB7rmTouUHe1gxopgQ-5">
          <mxGeometry width="160" relative="1" as="geometry">
            <mxPoint x="665" y="544" as="sourcePoint" />
            <mxPoint x="620" y="560" as="targetPoint" />
          </mxGeometry>
        </mxCell>
        <mxCell id="0aJfc2Yyu7M5QrowPmhC-9" value="發票記帳、&lt;br&gt;分析圖表" style="ellipse;whiteSpace=wrap;html=1;aspect=fixed;" vertex="1" parent="1">
          <mxGeometry x="390" y="556.25" width="80" height="40" as="geometry" />
        </mxCell>
        <mxCell id="0aJfc2Yyu7M5QrowPmhC-10" value="中獎發票檢視、&lt;br&gt;兌獎方式推薦" style="ellipse;whiteSpace=wrap;html=1;aspect=fixed;" vertex="1" parent="1">
          <mxGeometry x="285" y="556.25" width="100" height="50" as="geometry" />
        </mxCell>
        <mxCell id="0aJfc2Yyu7M5QrowPmhC-11" value="優惠資訊檢視" style="ellipse;whiteSpace=wrap;html=1;aspect=fixed;" vertex="1" parent="1">
          <mxGeometry x="195" y="528" width="90" height="45" as="geometry" />
        </mxCell>
        <mxCell id="0aJfc2Yyu7M5QrowPmhC-12" value="更新顯示記帳資料" style="ellipse;whiteSpace=wrap;html=1;aspect=fixed;" vertex="1" parent="1">
          <mxGeometry x="280" y="421" width="110" height="55" as="geometry" />
        </mxCell>
        <mxCell id="nAPB7rmTouUHe1gxopgQ-1" value="" style="ellipse;whiteSpace=wrap;html=1;aspect=fixed;" vertex="1" parent="1">
          <mxGeometry x="478" y="435" width="180" height="90" as="geometry" />
        </mxCell>
        <mxCell id="nAPB7rmTouUHe1gxopgQ-2" value="" style="line;strokeWidth=1;fillColor=none;align=left;verticalAlign=middle;spacingTop=-1;spacingLeft=3;spacingRight=3;rotatable=0;labelPosition=right;points=[];portConstraint=eastwest;strokeColor=inherit;" vertex="1" parent="1">
          <mxGeometry x="488" y="476" width="160" height="8" as="geometry" />
        </mxCell>
        <mxCell id="nAPB7rmTouUHe1gxopgQ-3" value="更新顯示發票資料" style="text;html=1;strokeColor=none;fillColor=none;align=center;verticalAlign=middle;whiteSpace=wrap;rounded=0;" vertex="1" parent="1">
          <mxGeometry x="518" y="446" width="100" height="30" as="geometry" />
        </mxCell>
        <mxCell id="nAPB7rmTouUHe1gxopgQ-4" value="extension points" style="text;html=1;strokeColor=none;fillColor=none;align=center;verticalAlign=middle;whiteSpace=wrap;rounded=0;" vertex="1" parent="1">
          <mxGeometry x="518" y="476" width="100" height="30" as="geometry" />
        </mxCell>
        <mxCell id="nAPB7rmTouUHe1gxopgQ-5" value="發票掃描檔" style="text;html=1;strokeColor=none;fillColor=none;align=center;verticalAlign=middle;whiteSpace=wrap;rounded=0;" vertex="1" parent="1">
          <mxGeometry x="518" y="495" width="100" height="30" as="geometry" />
        </mxCell>
        <mxCell id="JSuSvgok5jORs18v_VUC-1" value="匯出發票檔" style="ellipse;whiteSpace=wrap;html=1;aspect=fixed;" vertex="1" parent="1">
          <mxGeometry x="280" y="484" width="110" height="55" as="geometry" />
        </mxCell>
      </root>
    </mxGraphModel>
  </diagram>
</mxfile>
